HIERARCHY
ROOT hip
{
  OFFSET 0 0 0
  CHANNELS 6 Xposition Yposition Zposition Zrotation Yrotation Xrotation
  JOINT abdomen
  {
    OFFSET 0 20.6881 -0.73152
    CHANNELS 3 Zrotation Xrotation Yrotation
    JOINT chest
    {
      OFFSET 0 11.7043 -0.48768
      CHANNELS 3 Zrotation Xrotation Yrotation
      JOINT neck
      {
        OFFSET 0 22.1894 -2.19456
        CHANNELS 3 Zrotation Xrotation Yrotation
        JOINT head
        {
          OFFSET -0.24384 7.07133 1.2192
          CHANNELS 3 Zrotation Xrotation Yrotation
          JOINT leftEye
          {
            OFFSET 4.14528 8.04674 8.04672
            CHANNELS 3 Zrotation Xrotation Yrotation
            End Site
            {
              OFFSET 1 0 0
            }
          }
          JOINT rightEye
          {
            OFFSET -3.6576 8.04674 8.04672
            CHANNELS 3 Zrotation Xrotation Yrotation
            End Site
            {
              OFFSET 1 0 0
            }
          }
        }
      }
      JOINT rCollar
      {
        OFFSET -2.68224 19.2634 -4.8768
        CHANNELS 3 Zrotation Xrotation Yrotation
        JOINT rShldr
        {
          OFFSET -8.77824 -1.95073 1.46304
          CHANNELS 3 Zrotation Xrotation Yrotation
          JOINT rForeArm
          {
            OFFSET -28.1742 -1.7115 0.48768
            CHANNELS 3 Zrotation Xrotation Yrotation
            JOINT rHand
            {
              OFFSET -22.5879 0.773209 7.07136
              CHANNELS 3 Zrotation Xrotation Yrotation
              JOINT rThumb1
              {
                OFFSET -1.2192 -0.487915 3.41376
                CHANNELS 3 Zrotation Xrotation Yrotation
                JOINT rThumb2
                {
                  OFFSET -3.37035 -0.52449 3.41376
                  CHANNELS 3 Zrotation Xrotation Yrotation
                  End Site
                  {
                    OFFSET -1.78271 -1.18214 1.43049
                  }
                }
              }
              JOINT rIndex1
              {
                OFFSET -7.75947 0.938293 5.60832
                CHANNELS 3 Zrotation Xrotation Yrotation
                JOINT rIndex2
                {
                  OFFSET -2.54057 -0.884171 1.56538
                  CHANNELS 3 Zrotation Xrotation Yrotation
                  End Site
                  {
                    OFFSET -1.62519 -0.234802 1.16502
                  }
                }
              }
              JOINT rMid1
              {
                OFFSET -8.24714 1.18213 3.41376
                CHANNELS 3 Zrotation Xrotation Yrotation
                JOINT rMid2
                {
                  OFFSET -3.10165 -0.590103 1.0647
                  CHANNELS 3 Zrotation Xrotation Yrotation
                  End Site
                  {
                    OFFSET -2.48547 -0.328903 0.83742
                  }
                }
              }
              JOINT rRing1
              {
                OFFSET -8.82822 0.546677 1.51678
                CHANNELS 3 Zrotation Xrotation Yrotation
                JOINT rRing2
                {
                  OFFSET -2.60934 -0.819778 -0.0198488
                  CHANNELS 3 Zrotation Xrotation Yrotation
                  End Site
                  {
                    OFFSET -2.33842 -0.294052 0.168128
                  }
                }
              }
              JOINT rPinky1
              {
                OFFSET -8.27202 -0.0477905 -0.4584
                CHANNELS 3 Zrotation Xrotation Yrotation
                JOINT rPinky2
                {
                  OFFSET -1.82734 -0.647385 -0.700984
                  CHANNELS 3 Zrotation Xrotation Yrotation
                  End Site
                  {
                    OFFSET -1.69225 -0.51767 -0.607171
                  }
                }
              }
            }
          }
        }
      }
      JOINT lCollar
      {
        OFFSET 2.68224 19.2634 -4.8768
        CHANNELS 3 Zrotation Xrotation Yrotation
        JOINT lShldr
        {
          OFFSET 8.77824 -1.95073 1.46304
          CHANNELS 3 Zrotation Xrotation Yrotation
          JOINT lForeArm
          {
            OFFSET 28.1742 -1.7115 0.48768
            CHANNELS 3 Zrotation Xrotation Yrotation
            JOINT lHand
            {
              OFFSET 22.5879 0.773209 7.07136
              CHANNELS 3 Zrotation Xrotation Yrotation
              JOINT lThumb1
              {
                OFFSET 1.2192 -0.487915 3.41376
                CHANNELS 3 Zrotation Xrotation Yrotation
                JOINT lThumb2
                {
                  OFFSET 3.37035 -0.52449 3.41376
                  CHANNELS 3 Zrotation Xrotation Yrotation
                  End Site
                  {
                    OFFSET 1.78271 -1.18214 1.43049
                  }
                }
              }
              JOINT lIndex1
              {
                OFFSET 7.75947 0.938293 5.60832
                CHANNELS 3 Zrotation Xrotation Yrotation
                JOINT lIndex2
                {
                  OFFSET 2.54057 -0.884171 1.56538
                  CHANNELS 3 Zrotation Xrotation Yrotation
                  End Site
                  {
                    OFFSET 1.62519 -0.234802 1.16502
                  }
                }
              }
              JOINT lMid1
              {
                OFFSET 8.24714 1.18213 3.41376
                CHANNELS 3 Zrotation Xrotation Yrotation
                JOINT lMid2
                {
                  OFFSET 3.10165 -0.590103 1.0647
                  CHANNELS 3 Zrotation Xrotation Yrotation
                  End Site
                  {
                    OFFSET 2.48547 -0.328903 0.83742
                  }
                }
              }
              JOINT lRing1
              {
                OFFSET 8.82822 0.546677 1.51678
                CHANNELS 3 Zrotation Xrotation Yrotation
                JOINT lRing2
                {
                  OFFSET 2.60934 -0.819778 -0.0198488
                  CHANNELS 3 Zrotation Xrotation Yrotation
                  End Site
                  {
                    OFFSET 2.33842 -0.294052 0.168128
                  }
                }
              }
              JOINT lPinky1
              {
                OFFSET 8.27202 -0.0477905 -0.4584
                CHANNELS 3 Zrotation Xrotation Yrotation
                JOINT lPinky2
                {
                  OFFSET 1.82734 -0.647385 -0.700984
                  CHANNELS 3 Zrotation Xrotation Yrotation
                  End Site
                  {
                    OFFSET 1.69225 -0.51767 -0.607171
                  }
                }
              }
            }
          }
        }
      }
    }
  }
  JOINT rButtock
  {
    OFFSET -8.77824 4.35084 1.2192
    CHANNELS 3 Zrotation Xrotation Yrotation
    JOINT rThigh
    {
      OFFSET 0 -1.70687 -2.19456
      CHANNELS 3 Zrotation Xrotation Yrotation
      JOINT rShin
      {
        OFFSET 0 -36.8199 0.73152
        CHANNELS 3 Zrotation Xrotation Yrotation
        JOINT rFoot
        {
          OFFSET 0.73152 -45.1104 -5.12064
          CHANNELS 3 Zrotation Xrotation Yrotation
          End Site
          {
            OFFSET -1.1221 -3.69964 12.103
          }
        }
      }
    }
  }
  JOINT lButtock
  {
    OFFSET 8.77824 4.35084 1.2192
    CHANNELS 3 Zrotation Xrotation Yrotation
    JOINT lThigh
    {
      OFFSET 0 -1.70687 -2.19456
      CHANNELS 3 Zrotation Xrotation Yrotation
      JOINT lShin
      {
        OFFSET 0 -36.8199 0.73152
        CHANNELS 3 Zrotation Xrotation Yrotation
        JOINT lFoot
        {
          OFFSET -0.73152 -45.1104 -5.12064
          CHANNELS 3 Zrotation Xrotation Yrotation
          End Site
          {
            OFFSET 1.1221 -3.69964 12.103
          }
        }
      }
    }
  }
}
MOTION
Frames:	5
Frame Time:	0.00833333
0.009298 48.3202 -0.045991 -158.293 84.7524 -154.605 -3.52469 15.396899 20.2462 -4.82528 -11.7636 5.04906 0.956749 13.2342 11.7709 -1.59937 -18.9748 22.9998 -0.0 0.0 0.0 -0.0 0.0 0.0 -0.0 -0.0 -0.0 -0.263673 49.1611 65.264 -28.0122 -40.3523 84.5533 -0.002756 1.5371 0.216076 0.0 0.0 0.0 0.0 0.0 0.0 0.0 0.0 0.0 7.73091 5.47488 0.417314 0.0 0.0 0.0 2.90554 0.965183 0.102902 0.0 0.0 0.0 10.2786 0.731801 0.025912 0.0 0.0 0.0 2.22167 -0.733487 -0.20892 -0.0 -0.0 -0.0 -49.1516 16.2272 -19.3216 26.9937 -44.0325 -91.5086 2.38434 -39.4565 6.64247 -0.0 0.0 -0.0 -0.0 0.0 -0.0 -0.0 0.0 -0.0 -7.73091 5.47488 -0.417314 -0.0 0.0 -0.0 -2.90554 0.965183 -0.102902 -0.0 0.0 -0.0 -10.2786 0.731801 -0.025912 -0.0 0.0 -0.0 -2.22167 -0.733487 0.20892 -0.0 0.0 -0.0 -55.0495 -43.6339 -43.1645 -161.735 86.8944 163.471 -4.23244 -26.9517 -8.53352 0.0 0.0 0.0 67.2921 -51.364 48.3895 85.2315 89.0086 -86.3472 -1.98168 -24.4824 -1.38351
0.027099 48.1832 -0.097001 -159.179 84.5977 -155.455 -3.60808 15.3012 20.3477 -4.81956 -11.8221 5.07339 0.963124 13.2907 11.819 -1.53689 -18.9997 23.1049 -0.0 0.0 0.0 -0.0 0.0 0.0 -0.0 -0.0 -0.0 -1.04564 48.9296 66.2239 -27.972 -40.5595 84.9302 -0.004654 1.94745 0.273803 -0.0 0.0 0.0 -0.0 0.0 0.0 -0.0 0.0 0.0 7.73091 5.47488 0.417314 -0.0 0.0 0.0 2.90554 0.965183 0.102902 -0.0 0.0 0.0 10.2786 0.731801 0.025912 -0.0 0.0 0.0 2.22167 -0.733487 -0.20892 -0.0 -0.0 -0.0 -49.3453 15.858301 -19.2199 26.9696 -44.0963 -91.6356 2.40331 -39.5816 6.67224 -0.0 0.0 -0.0 -0.0 0.0 -0.0 -0.0 0.0 -0.0 -7.73091 5.47488 -0.417314 -0.0 0.0 -0.0 -2.90554 0.965183 -0.102902 -0.0 0.0 -0.0 -10.2786 0.731801 -0.025912 -0.0 0.0 -0.0 -2.22167 -0.733487 0.20892 -0.0 0.0 -0.0 -55.3944 -43.5457 -43.4609 -162.90298 86.6808 164.65298 -4.26654 -27.0107 -8.58203 0.0 0.0 0.0 67.70149 -51.5661 48.7858 99.9944 88.9917 -101.106 -2.00244 -24.5485 -1.40474
0.024098 48.0271 -0.144005 -160.014 84.4277 -156.203 -3.72063 15.1808 20.4298 -4.78261 -11.8717 5.09503 0.992369 13.3546 11.8624 -1.55939 -19.0111 23.1864 -0.0 0.0 0.0 -0.0 0.0 0.0 -0.0 0.0 -0.0 -1.81978 48.712 67.1645 -27.932 -40.7578 85.2913 -0.006712 2.30899 0.32469 -0.0 0.0 0.0 -0.0 0.0 0.0 -0.0 0.0 0.0 7.73091 5.47488 0.417314 -0.0 0.0 0.0 2.90554 0.965183 0.102902 -0.0 0.0 0.0 10.2786 0.731801 0.025912 -0.0 0.0 0.0 2.22167 -0.733487 -0.20892 -0.0 0.0 -0.0 -49.6072 15.491099 -19.1015 26.9455 -44.1599 -91.7623 2.4019 -39.5719 6.66996 -0.0 0.0 -0.0 -0.0 0.0 -0.0 -0.0 0.0 -0.0 -7.73091 5.47488 -0.417314 -0.0 0.0 -0.0 -2.90554 0.965183 -0.102902 -0.0 0.0 -0.0 -10.2786 0.731801 -0.025912 -0.0 0.0 -0.0 -2.22167 -0.733487 0.20892 -0.0 0.0 -0.0 -55.804 -43.4826 -43.7928 -163.982 86.4538 165.747 -4.30156 -27.0625 -8.63289 0.0 0.0 0.0 68.1015 -51.7797 49.2048 113.525 88.9121 -114.635 -1.99903 -24.5985 -1.38063
0.027099 47.8672 -0.198996 -161.343 84.3202 -157.452 -3.85481 15.0421 20.5009 -4.72677 -11.9136 5.11527 1.04089 13.421 11.8989 -1.64069 -19.01 23.2446 -0.0 0.0 0.0 -0.0 0.0 0.0 -0.0 0.0 0.0 -2.55143 48.5091 68.0602 -27.8922 -40.9495 85.6396 -0.008848 2.64173 0.371552 -0.0 0.0 0.0 -0.0 0.0 0.0 -0.0 0.0 0.0 7.73091 5.47488 0.417314 -0.0 0.0 0.0 2.90554 0.965183 0.102902 -0.0 0.0 0.0 10.2786 0.731801 0.025912 -0.0 0.0 0.0 2.22167 -0.733487 -0.20892 -0.0 0.0 0.0 -49.9175 15.1413 -18.9805 26.9207 -44.2243 -91.8913 2.38431 -39.4558 6.64235 -0.0 0.0 -0.0 -0.0 0.0 -0.0 -0.0 0.0 -0.0 -7.73091 5.47488 -0.417314 -0.0 0.0 -0.0 -2.90554 0.965183 -0.102902 -0.0 0.0 -0.0 -10.2786 0.731801 -0.025912 -0.0 0.0 -0.0 -2.22167 -0.733487 0.20892 -0.0 0.0 -0.0 -56.2699 -43.4411 -44.1558 -164.977 86.2133 166.757 -4.33376 -27.1099 -8.67949 0.0 0.0 0.0 68.4996 -52.0031 49.6476 124.831 88.7798 -125.94301 -1.97397 -24.6387 -1.31589
0.029698 47.7251 -0.252998 -162.163 84.1991 -158.206 -3.98362 14.9076 20.559 -4.66892 -11.9558 5.13223 1.08191 13.4807 11.9382 -1.71965 -18.9988 23.309 -0.0 0.0 0.0 -0.0 0.0 0.0 0.0 0.0 0.0 -3.24265 48.3224 68.9298 -27.8534 -41.1282 85.9661 -0.011142 2.98226 0.419528 -0.0 0.0 0.0 -0.0 0.0 0.0 -0.0 0.0 0.0 7.73091 5.47488 0.417314 -0.0 0.0 0.0 2.90554 0.965183 0.102902 -0.0 0.0 0.0 10.2786 0.731801 0.025912 -0.0 0.0 0.0 2.22167 -0.733487 -0.20892 0.0 0.0 0.0 -50.2478 14.7866 -18.8531 26.8944 -44.2922 -92.0272 2.36001 -39.2942 6.60408 -0.0 0.0 -0.0 -0.0 0.0 -0.0 -0.0 0.0 -0.0 -7.73091 5.47488 -0.417314 -0.0 0.0 -0.0 -2.90554 0.965183 -0.102902 -0.0 0.0 -0.0 -10.2786 0.731801 -0.025912 -0.0 0.0 -0.0 -2.22167 -0.733487 0.20892 -0.0 0.0 -0.0 -56.7468 -43.4145 -44.5217 -165.862 85.9689 167.657 -4.36568 -27.1537 -8.72645 0.0 0.0 0.0 68.9048 -52.2195 50.0976 133.784 88.6069 -134.898 -1.94997 -24.6812 -1.25253
